# xmcd CD database file
#
# Track frame offsets:
#	150
#	25255
#	40092
#	58285
#	86930
#	120120
#	147112
#	157265
#	174685
#	196662
#	216320
#	235957
#	253405
#
# Disc length: 3582 seconds
#
# Revision: 4
# Processed by: cddbd v1.5.2PL0 Copyright (c) Steve Scherf et al.
# Submitted via: CDex 1.51
#
DISCID=be0dfc0d
DTITLE=Various Artist - African Voices
DYEAR=1996
DGENRE=World
TTITLE0=Kothbiro
TTITLE1=Dala
TTITLE2=Ondiek
TTITLE3=Sutu Kun
TTITLE4=Jali
TTITLE5=Ekibobo
TTITLE6=Ndere
TTITLE7=Wasuze Otya?
TTITLE8=Ngak
TTITLE9=Igne
TTITLE10=Mamadi
TTITLE11=Woza Azania
TTITLE12=Tatenda
EXTD=YEAR: 1996
EXTT0=
EXTT1=
EXTT2=
EXTT3=
EXTT4=
EXTT5=
EXTT6=
EXTT7=
EXTT8=
EXTT9=
EXTT10=
EXTT11=
EXTT12=
PLAYORDER=
